<?xml version="1.0" encoding="UTF-8" standalone="no"?>
<!DOCTYPE svg PUBLIC "-//W3C//DTD SVG 1.1//EN" "http://www.w3.org/Graphics/SVG/1.1/DTD/svg11.dtd">
<!-- Created with Vectornator (http://vectornator.io/) -->
<svg height="100%" stroke-miterlimit="10" style="fill-rule:nonzero;clip-rule:evenodd;stroke-linecap:round;stroke-linejoin:round;" version="1.1" viewBox="0 0 180 50" width="100%" xml:space="preserve" xmlns="http://www.w3.org/2000/svg" xmlns:vectornator="http://vectornator.io" xmlns:xlink="http://www.w3.org/1999/xlink">
<defs>
<linearGradient gradientTransform="matrix(1.12039 0 0 0.998038 -5.26431 -13.0036)" gradientUnits="userSpaceOnUse" id="LinearGradient" x1="7.85836" x2="139.041" y1="38.0783" y2="38.0783">
<stop offset="0" stop-color="#cccaca"/>
<stop offset="1" stop-color="#737373"/>
</linearGradient>
<linearGradient gradientTransform="matrix(1 0 0 1 -3.76221 -1.24722)" gradientUnits="userSpaceOnUse" id="LinearGradient_2" x1="9.4928" x2="122.456" y1="23.902" y2="25.166">
<stop offset="0" stop-color="#ffe344" stop-opacity="0.997748"/>
<stop offset="1" stop-color="#ff561c"/>
</linearGradient>
</defs>
<clipPath id="ArtboardFrame">
<rect height="50" width="180" x="0" y="0"/>
</clipPath>
<g clip-path="url(#ArtboardFrame)" id="Layer-1" vectornator:layerName="Layer 1">
<path d="M-5.32907e-15 0L180 0L180 50L-5.32907e-15 50L-5.32907e-15 0Z" fill="#000000" fill-rule="nonzero" opacity="0.999686" stroke="none" vectornator:layerName="Rectangle 1"/>
<g fill="url(#LinearGradient)" opacity="0.365261" stroke="none" vectornator:layerName="Text 2">
<path d="M8.94524 30.5586L14.7968 30.5586C16.1868 30.5586 17.4002 30.2794 18.4369 29.7212C19.4737 29.1629 20.2815 28.3779 20.8603 27.3662C21.4391 26.3545 21.7284 25.1718 21.7284 23.8183L21.7284 23.791C21.7284 22.4375 21.4391 21.2549 20.8603 20.2431C20.2815 19.2314 19.4737 18.4453 18.4369 17.8847C17.4002 17.3242 16.1868 17.0439 14.7968 17.0439L8.94524 17.0439L8.94524 20.3183L13.7919 20.3183C14.9768 20.3183 15.8985 20.618 16.5571 21.2173C17.2156 21.8165 17.5449 22.679 17.5449 23.8047L17.5449 23.832C17.5449 24.9485 17.2156 25.8099 16.5571 26.416C15.8985 27.0221 14.9768 27.3252 13.7919 27.3252L8.94524 27.3252L8.94524 30.5586ZM6.87395 36.7724L11.0029 36.7724L11.0029 17.0439L6.87395 17.0439L6.87395 36.7724Z"/>
<path d="M24.2031 36.7724L28.1952 36.7724L28.1952 28.5693C28.1952 27.8584 28.3172 27.2568 28.561 26.7646C28.8048 26.2724 29.1602 25.8987 29.6274 25.6435C30.0945 25.3883 30.6562 25.2607 31.3124 25.2607C31.6041 25.2607 31.8775 25.2812 32.1327 25.3222C32.388 25.3633 32.5976 25.4179 32.7616 25.4863L32.7616 21.9726C32.6113 21.9271 32.4369 21.8895 32.2387 21.8598C32.0405 21.8302 31.8297 21.8154 31.6064 21.8154C30.7542 21.8154 30.0398 22.0661 29.4633 22.5674C28.8868 23.0687 28.4915 23.7705 28.2773 24.6728L28.1952 24.6728L28.1952 22.1162L24.2031 22.1162L24.2031 36.7724Z"/>
<path d="M41.0126 37.0732C42.4937 37.0732 43.7766 36.7702 44.8613 36.164C45.9459 35.5579 46.7856 34.6863 47.3803 33.5493C47.975 32.4122 48.2724 31.0462 48.2724 29.4511L48.2724 29.4238C48.2724 27.8379 47.9716 26.4775 47.37 25.3427C46.7685 24.208 45.9242 23.3364 44.8373 22.728C43.7504 22.1196 42.4732 21.8154 41.0058 21.8154C39.5475 21.8154 38.2748 22.1207 37.1879 22.7314C36.101 23.3421 35.2568 24.216 34.6552 25.353C34.0536 26.49 33.7529 27.847 33.7529 29.4238L33.7529 29.4511C33.7529 31.0371 34.0491 32.3997 34.6415 33.539C35.234 34.6784 36.0737 35.5522 37.1606 36.1606C38.2475 36.769 39.5315 37.0732 41.0126 37.0732ZM41.0263 33.9424C40.37 33.9424 39.8015 33.7669 39.3207 33.416C38.8399 33.0651 38.4685 32.5547 38.2065 31.8847C37.9444 31.2148 37.8134 30.4036 37.8134 29.4511L37.8134 29.4238C37.8134 28.4759 37.9456 27.6692 38.2099 27.0039C38.4742 26.3385 38.8468 25.8292 39.3276 25.476C39.8084 25.1229 40.3678 24.9463 41.0058 24.9463C41.6529 24.9463 42.2169 25.1217 42.6977 25.4726C43.1785 25.8235 43.551 26.3328 43.8154 27.0005C44.0797 27.6681 44.2118 28.4759 44.2118 29.4238L44.2118 29.4511C44.2118 30.4036 44.082 31.2148 43.8222 31.8847C43.5624 32.5547 43.1944 33.0651 42.7182 33.416C42.242 33.7669 41.678 33.9424 41.0263 33.9424Z"/>
<path d="M59.3945 37.0732C60.6249 37.0732 61.6868 36.7679 62.58 36.1572C63.4732 35.5465 64.1602 34.6715 64.641 33.5322C65.1218 32.3929 65.3622 31.0302 65.3622 29.4443L65.3622 29.4306C65.3622 27.8401 65.1207 26.4764 64.6376 25.3393C64.1546 24.2023 63.4687 23.3307 62.58 22.7246C61.6913 22.1185 60.6318 21.8154 59.4013 21.8154C58.3622 21.8154 57.4496 22.0683 56.6635 22.5742C55.8774 23.08 55.2838 23.7773 54.8827 24.666L54.8007 24.666L54.8007 17.0439L50.8085 17.0439L50.8085 36.7724L54.8007 36.7724L54.8007 34.2773L54.8827 34.2773C55.2792 35.1478 55.866 35.8314 56.643 36.3281C57.42 36.8248 58.3372 37.0732 59.3945 37.0732ZM58.0615 33.7646C57.4143 33.7646 56.8458 33.5892 56.3559 33.2383C55.866 32.8873 55.4832 32.3883 55.2074 31.7412C54.9317 31.094 54.7939 30.3307 54.7939 29.4511L54.7939 29.4375C54.7939 28.5534 54.9329 27.7889 55.2109 27.144C55.4889 26.4992 55.8728 26.0013 56.3627 25.6504C56.8526 25.2994 57.4189 25.124 58.0615 25.124C58.7223 25.124 59.2953 25.2972 59.7807 25.6435C60.266 25.9899 60.6409 26.4843 60.9052 27.1269C61.1695 27.7695 61.3017 28.5374 61.3017 29.4306L61.3017 29.4443C61.3017 30.333 61.1707 31.1009 60.9086 31.748C60.6466 32.3952 60.2729 32.893 59.7875 33.2417C59.3022 33.5903 58.7268 33.7646 58.0615 33.7646Z"/>
<path d="M67.8984 36.7724L71.8906 36.7724L71.8906 17.0439L67.8984 17.0439L67.8984 36.7724Z"/>
<path d="M81.6386 37.0732C82.6822 37.0732 83.5948 36.9365 84.3764 36.6631C85.158 36.3896 85.8199 36.025 86.3622 35.5693C86.9046 35.1136 87.3341 34.6134 87.6508 34.0688C87.9675 33.5242 88.1829 32.983 88.2968 32.4453L88.331 32.2881L84.6669 32.2881L84.6396 32.3701C84.5484 32.6481 84.3764 32.9192 84.1235 33.1836C83.8705 33.4479 83.5435 33.6655 83.1425 33.8364C82.7415 34.0073 82.2675 34.0927 81.7206 34.0927C81.0279 34.0927 80.4309 33.9401 79.9296 33.6347C79.4283 33.3294 79.0421 32.8896 78.7709 32.3154C78.4998 31.7412 78.3642 31.0508 78.3642 30.2441L78.3642 28.6924C78.3642 27.8584 78.4998 27.1508 78.7709 26.5698C79.0421 25.9887 79.4169 25.5478 79.8954 25.247C80.374 24.9463 80.9231 24.7959 81.5429 24.7959C82.1627 24.7959 82.7073 24.9417 83.1767 25.2334C83.6461 25.525 84.013 25.9603 84.2773 26.539C84.5416 27.1178 84.6738 27.8356 84.6738 28.6924L84.6738 30.2304L86.5673 27.8789L76.3886 27.8789L76.3886 30.3945L88.454 30.3945L88.454 29.164C88.454 27.6875 88.1703 26.3978 87.603 25.2949C87.0356 24.192 86.2301 23.3364 85.1865 22.728C84.1428 22.1196 82.9055 21.8154 81.4745 21.8154C80.0435 21.8154 78.8005 22.1287 77.7455 22.7553C76.6905 23.382 75.8736 24.2672 75.2949 25.4111C74.7161 26.555 74.4267 27.9039 74.4267 29.458L74.4267 29.4717C74.4267 31.0302 74.7161 32.3792 75.2949 33.5185C75.8736 34.6578 76.7019 35.5351 77.7797 36.1504C78.8575 36.7656 80.1438 37.0732 81.6386 37.0732Z"/>
<path d="M90.8876 36.7724L94.8798 36.7724L94.8798 27.9267C94.8798 27.3753 94.9869 26.8899 95.2011 26.4707C95.4153 26.0514 95.7127 25.7221 96.0932 25.4829C96.4737 25.2436 96.9146 25.124 97.4159 25.124C98.1588 25.124 98.7387 25.3439 99.1557 25.7837C99.5727 26.2234 99.7812 26.8398 99.7812 27.6328L99.7812 36.7724L103.63 36.7724L103.63 27.8652C103.63 27.3183 103.733 26.8398 103.941 26.4297C104.148 26.0195 104.441 25.6994 104.819 25.4692C105.198 25.2391 105.637 25.124 106.139 25.124C106.913 25.124 107.506 25.3507 107.916 25.8042C108.326 26.2576 108.531 26.9082 108.531 27.7558L108.531 36.7724L112.523 36.7724L112.523 26.7509C112.523 25.762 112.323 24.8984 111.922 24.1601C111.521 23.4218 110.961 22.8465 110.244 22.4341C109.526 22.0216 108.686 21.8154 107.725 21.8154C107.009 21.8154 106.347 21.9396 105.739 22.188C105.13 22.4363 104.606 22.7861 104.166 23.2373C103.727 23.6884 103.397 24.2239 103.179 24.8437L103.097 24.8437C102.937 24.1966 102.669 23.6486 102.293 23.1997C101.917 22.7508 101.456 22.4078 100.909 22.1709C100.362 21.9339 99.7447 21.8154 99.0566 21.8154C98.0768 21.8154 97.2234 22.0672 96.4965 22.5708C95.7696 23.0744 95.2581 23.7454 94.9618 24.584L94.8798 24.584L94.8798 22.1162L90.8876 22.1162L90.8876 36.7724Z"/>
<path d="M117.514 37.0049C118.133 37.0049 118.657 36.7907 119.086 36.3623C119.514 35.9339 119.728 35.4098 119.728 34.79C119.728 34.1702 119.514 33.6461 119.086 33.2177C118.657 32.7894 118.133 32.5752 117.514 32.5752C116.894 32.5752 116.37 32.7894 115.941 33.2177C115.513 33.6461 115.299 34.1702 115.299 34.79C115.299 35.4098 115.513 35.9339 115.941 36.3623C116.37 36.7907 116.894 37.0049 117.514 37.0049Z"/>
<path d="M121.643 36.7724L125.983 36.7724L130.919 20.872L132.177 20.872L132.177 17.0439L128.533 17.0439L121.643 36.7724ZM125.348 31.9873L136.572 31.9873L135.56 28.8974L126.359 28.8974L125.348 31.9873ZM135.93 36.7724L140.27 36.7724L133.387 17.0439L131.001 17.0439L131.001 20.872L135.93 36.7724Z"/>
<path d="M142.67 36.7724L146.799 36.7724L146.799 17.0439L142.67 17.0439L142.67 36.7724Z"/>
</g>
<g fill="url(#LinearGradient_2)" opacity="0.999686" stroke="none" vectornator:layerName="Text 1">
<path d="M7.21191 28.7393L13.0635 28.7393C14.4535 28.7393 15.6668 28.4601 16.7036 27.9019C17.7404 27.3436 18.5482 26.5586 19.127 25.5469C19.7057 24.5352 19.9951 23.3525 19.9951 21.999L19.9951 21.9717C19.9951 20.6182 19.7057 19.4355 19.127 18.4238C18.5482 17.4121 17.7404 16.626 16.7036 16.0654C15.6668 15.5049 14.4535 15.2246 13.0635 15.2246L7.21191 15.2246L7.21191 18.499L12.0586 18.499C13.2435 18.499 14.1652 18.7987 14.8237 19.3979C15.4823 19.9972 15.8115 20.8597 15.8115 21.9854L15.8115 22.0127C15.8115 23.1292 15.4823 23.9906 14.8237 24.5967C14.1652 25.2028 13.2435 25.5059 12.0586 25.5059L7.21191 25.5059L7.21191 28.7393ZM5.14062 34.9531L9.26953 34.9531L9.26953 15.2246L5.14062 15.2246L5.14062 34.9531Z"/>
<path d="M22.4697 34.9531L26.4619 34.9531L26.4619 26.75C26.4619 26.0391 26.5838 25.4375 26.8276 24.9453C27.0715 24.4531 27.4269 24.0794 27.894 23.8242C28.3612 23.569 28.9229 23.4414 29.5791 23.4414C29.8708 23.4414 30.1442 23.4619 30.3994 23.5029C30.6546 23.5439 30.8643 23.5986 31.0283 23.667L31.0283 20.1533C30.8779 20.1077 30.7036 20.0701 30.5054 20.0405C30.3071 20.0109 30.0964 19.9961 29.873 19.9961C29.0208 19.9961 28.3065 20.2467 27.73 20.748C27.1535 21.2493 26.7581 21.9512 26.5439 22.8535L26.4619 22.8535L26.4619 20.2969L22.4697 20.2969L22.4697 34.9531Z"/>
<path d="M39.2793 35.2539C40.7604 35.2539 42.0433 34.9508 43.1279 34.3447C44.2126 33.7386 45.0522 32.867 45.647 31.73C46.2417 30.5929 46.5391 29.2269 46.5391 27.6318L46.5391 27.6045C46.5391 26.0186 46.2383 24.6582 45.6367 23.5234C45.0352 22.3887 44.1909 21.5171 43.104 20.9087C42.0171 20.3003 40.7399 19.9961 39.2725 19.9961C37.8141 19.9961 36.5415 20.3014 35.4546 20.9121C34.3677 21.5228 33.5234 22.3966 32.9219 23.5337C32.3203 24.6707 32.0195 26.0277 32.0195 27.6045L32.0195 27.6318C32.0195 29.2178 32.3158 30.5804 32.9082 31.7197C33.5007 32.859 34.3403 33.7329 35.4272 34.3413C36.5142 34.9497 37.7982 35.2539 39.2793 35.2539ZM39.293 32.123C38.6367 32.123 38.0682 31.9476 37.5874 31.5967C37.1066 31.2458 36.7352 30.7354 36.4731 30.0654C36.2111 29.3955 36.0801 28.5843 36.0801 27.6318L36.0801 27.6045C36.0801 26.6566 36.2122 25.8499 36.4766 25.1846C36.7409 24.5192 37.1134 24.0099 37.5942 23.6567C38.075 23.3035 38.6344 23.127 39.2725 23.127C39.9196 23.127 40.4836 23.3024 40.9644 23.6533C41.4451 24.0042 41.8177 24.5135 42.082 25.1812C42.3464 25.8488 42.4785 26.6566 42.4785 27.6045L42.4785 27.6318C42.4785 28.5843 42.3486 29.3955 42.0889 30.0654C41.8291 30.7354 41.4611 31.2458 40.9849 31.5967C40.5086 31.9476 39.9447 32.123 39.293 32.123Z"/>
<path d="M57.6611 35.2539C58.8916 35.2539 59.9535 34.9486 60.8467 34.3379C61.7399 33.7272 62.4269 32.8522 62.9077 31.7129C63.3885 30.5736 63.6289 29.2109 63.6289 27.625L63.6289 27.6113C63.6289 26.0208 63.3874 24.6571 62.9043 23.52C62.4212 22.383 61.7354 21.5114 60.8467 20.9053C59.958 20.2992 58.8984 19.9961 57.668 19.9961C56.6289 19.9961 55.7163 20.249 54.9302 20.7549C54.144 21.2607 53.5505 21.958 53.1494 22.8467L53.0674 22.8467L53.0674 15.2246L49.0752 15.2246L49.0752 34.9531L53.0674 34.9531L53.0674 32.458L53.1494 32.458C53.5459 33.3285 54.1326 34.012 54.9097 34.5088C55.6867 35.0055 56.6038 35.2539 57.6611 35.2539ZM56.3281 31.9453C55.681 31.9453 55.1125 31.7699 54.6226 31.4189C54.1326 31.068 53.7498 30.569 53.4741 29.9219C53.1984 29.2747 53.0605 28.5114 53.0605 27.6318L53.0605 27.6182C53.0605 26.734 53.1995 25.9696 53.4775 25.3247C53.7555 24.6799 54.1395 24.182 54.6294 23.8311C55.1193 23.4801 55.6855 23.3047 56.3281 23.3047C56.9889 23.3047 57.562 23.4779 58.0474 23.8242C58.5327 24.1706 58.9076 24.665 59.1719 25.3076C59.4362 25.9502 59.5684 26.7181 59.5684 27.6113L59.5684 27.625C59.5684 28.5137 59.4373 29.2816 59.1753 29.9287C58.9132 30.5758 58.5396 31.0737 58.0542 31.4224C57.5688 31.771 56.9935 31.9453 56.3281 31.9453Z"/>
<path d="M66.165 34.9531L70.1572 34.9531L70.1572 15.2246L66.165 15.2246L66.165 34.9531Z"/>
<path d="M79.9053 35.2539C80.9489 35.2539 81.8615 35.1172 82.6431 34.8438C83.4246 34.5703 84.0866 34.2057 84.6289 33.75C85.1712 33.2943 85.6007 32.7941 85.9175 32.2495C86.2342 31.7049 86.4495 31.1637 86.5635 30.626L86.5977 30.4688L82.9336 30.4688L82.9062 30.5508C82.8151 30.8288 82.6431 31.0999 82.3901 31.3643C82.1372 31.6286 81.8102 31.8462 81.4092 32.0171C81.0081 32.188 80.5342 32.2734 79.9873 32.2734C79.2946 32.2734 78.6976 32.1208 78.1963 31.8154C77.695 31.5101 77.3088 31.0703 77.0376 30.4961C76.7664 29.9219 76.6309 29.2314 76.6309 28.4248L76.6309 26.873C76.6309 26.0391 76.7664 25.3315 77.0376 24.7505C77.3088 24.1694 77.6836 23.7285 78.1621 23.4277C78.6406 23.127 79.1898 22.9766 79.8096 22.9766C80.4294 22.9766 80.974 23.1224 81.4434 23.4141C81.9128 23.7057 82.2796 24.141 82.5439 24.7197C82.8083 25.2985 82.9404 26.0163 82.9404 26.873L82.9404 28.4111L84.834 26.0596L74.6553 26.0596L74.6553 28.5752L86.7207 28.5752L86.7207 27.3447C86.7207 25.8682 86.437 24.5785 85.8696 23.4756C85.3022 22.3727 84.4967 21.5171 83.4531 20.9087C82.4095 20.3003 81.1722 19.9961 79.7412 19.9961C78.3102 19.9961 77.0672 20.3094 76.0122 20.936C74.9572 21.5627 74.1403 22.4479 73.5615 23.5918C72.9827 24.7357 72.6934 26.0846 72.6934 27.6387L72.6934 27.6523C72.6934 29.2109 72.9827 30.5599 73.5615 31.6992C74.1403 32.8385 74.9686 33.7158 76.0464 34.3311C77.1242 34.9463 78.4105 35.2539 79.9053 35.2539Z"/>
<path d="M89.1543 34.9531L93.1465 34.9531L93.1465 26.1074C93.1465 25.556 93.2536 25.0706 93.4678 24.6514C93.682 24.2321 93.9793 23.9028 94.3599 23.6636C94.7404 23.4243 95.1813 23.3047 95.6826 23.3047C96.4255 23.3047 97.0054 23.5246 97.4224 23.9644C97.8394 24.4041 98.0479 25.0205 98.0479 25.8135L98.0479 34.9531L101.896 34.9531L101.896 26.0459C101.896 25.499 102 25.0205 102.208 24.6104C102.415 24.2002 102.708 23.88 103.086 23.6499C103.464 23.4198 103.904 23.3047 104.405 23.3047C105.18 23.3047 105.772 23.5314 106.183 23.9849C106.593 24.4383 106.798 25.0889 106.798 25.9365L106.798 34.9531L110.79 34.9531L110.79 24.9316C110.79 23.9427 110.59 23.0791 110.188 22.3408C109.787 21.6025 109.228 21.0272 108.51 20.6147C107.792 20.2023 106.953 19.9961 105.991 19.9961C105.276 19.9961 104.614 20.1203 104.005 20.3687C103.397 20.617 102.873 20.9668 102.433 21.418C101.993 21.8691 101.664 22.4046 101.445 23.0244L101.363 23.0244C101.204 22.3773 100.936 21.8293 100.56 21.3804C100.184 20.9315 99.7227 20.5885 99.1758 20.3516C98.6289 20.1146 98.0114 19.9961 97.3232 19.9961C96.3434 19.9961 95.4901 20.2479 94.7632 20.7515C94.0363 21.255 93.5247 21.9261 93.2285 22.7646L93.1465 22.7646L93.1465 20.2969L89.1543 20.2969L89.1543 34.9531Z"/>
<path d="M115.78 35.1855C116.4 35.1855 116.924 34.9714 117.353 34.543C117.781 34.1146 117.995 33.5905 117.995 32.9707C117.995 32.3509 117.781 31.8268 117.353 31.3984C116.924 30.9701 116.4 30.7559 115.78 30.7559C115.16 30.7559 114.636 30.9701 114.208 31.3984C113.78 31.8268 113.565 32.3509 113.565 32.9707C113.565 33.5905 113.78 34.1146 114.208 34.543C114.636 34.9714 115.16 35.1855 115.78 35.1855Z"/>
<path d="M119.909 34.9531L124.25 34.9531L129.186 19.0527L130.443 19.0527L130.443 15.2246L126.8 15.2246L119.909 34.9531ZM123.614 30.168L134.839 30.168L133.827 27.0781L124.626 27.0781L123.614 30.168ZM134.196 34.9531L138.537 34.9531L131.653 15.2246L129.268 15.2246L129.268 19.0527L134.196 34.9531Z"/>
<path d="M140.937 34.9531L145.065 34.9531L145.065 15.2246L140.937 15.2246L140.937 34.9531Z"/>
</g>
<path d="M155.806 35.9234C155.954 35.9234 156.094 35.8906 156.225 35.825C156.356 35.7594 156.511 35.6462 156.688 35.4854L159.107 33.3462L163.023 33.3526C163.671 33.3526 164.227 33.2246 164.693 32.9685C165.158 32.7125 165.517 32.3518 165.769 31.8863C166.02 31.4208 166.146 30.8664 166.146 30.2232L166.146 25.1578C166.146 24.5145 166.02 23.9591 165.769 23.4915C165.517 23.0239 165.158 22.6631 164.693 22.4092C164.227 22.1553 163.671 22.0284 163.023 22.0284L155.082 22.0284C154.435 22.0284 153.877 22.1553 153.41 22.4092C152.942 22.6631 152.582 23.0239 152.331 23.4915C152.079 23.9591 151.953 24.5145 151.953 25.1578L151.953 30.2232C151.953 30.8664 152.083 31.4208 152.343 31.8863C152.604 32.3518 152.959 32.7115 153.41 32.9654C153.86 33.2193 154.376 33.3462 154.955 33.3462L155.127 33.3462L155.127 35.168C155.127 35.4008 155.187 35.5848 155.308 35.7203C155.428 35.8557 155.594 35.9234 155.806 35.9234ZM155.723 30.1724C155.601 30.1724 155.493 30.1248 155.4 30.0296C155.307 29.9344 155.26 29.8233 155.26 29.6963C155.26 29.5651 155.306 29.4519 155.397 29.3567C155.488 29.2615 155.596 29.2139 155.723 29.2139L160.059 29.2139C160.19 29.2139 160.301 29.2605 160.392 29.3536C160.483 29.4467 160.529 29.5609 160.529 29.6963C160.529 29.8233 160.483 29.9344 160.392 30.0296C160.301 30.1248 160.19 30.1724 160.059 30.1724L155.723 30.1724ZM155.723 28.1348C155.601 28.1348 155.493 28.0872 155.4 27.992C155.307 27.8968 155.26 27.7836 155.26 27.6524C155.26 27.5254 155.306 27.4143 155.397 27.3191C155.488 27.2239 155.596 27.1763 155.723 27.1763L162.338 27.1763C162.469 27.1763 162.582 27.2239 162.677 27.3191C162.773 27.4143 162.82 27.5254 162.82 27.6524C162.82 27.7836 162.773 27.8968 162.677 27.992C162.582 28.0872 162.469 28.1348 162.338 28.1348L155.723 28.1348ZM155.723 26.1036C155.601 26.1036 155.493 26.0549 155.4 25.9576C155.307 25.8602 155.26 25.7481 155.26 25.6211C155.26 25.4899 155.306 25.3789 155.397 25.2879C155.488 25.1969 155.596 25.1514 155.723 25.1514L162.338 25.1514C162.469 25.1514 162.582 25.1969 162.677 25.2879C162.773 25.3789 162.82 25.4899 162.82 25.6211C162.82 25.7481 162.773 25.8602 162.677 25.9576C162.582 26.0549 162.469 26.1036 162.338 26.1036L155.723 26.1036Z" fill="#a1a1a1" opacity="0.850775" stroke="none" vectornator:layerName="Text 3"/>
<path d="M173.183 27.0815C173.035 27.0815 172.896 27.0487 172.764 26.9831C172.633 26.9175 172.479 26.8043 172.301 26.6435L169.883 24.5044L165.966 24.5107C165.319 24.5107 164.762 24.3827 164.297 24.1267C163.831 23.8707 163.472 23.5099 163.221 23.0444C162.969 22.5789 162.843 22.0246 162.843 21.3813L162.843 16.3159C162.843 15.6727 162.969 15.1172 163.221 14.6496C163.472 14.182 163.831 13.8213 164.297 13.5674C164.762 13.3135 165.319 13.1865 165.966 13.1865L173.907 13.1865C174.554 13.1865 175.112 13.3135 175.58 13.5674C176.047 13.8213 176.407 14.182 176.659 14.6496C176.91 15.1172 177.036 15.6727 177.036 16.3159L177.036 21.3813C177.036 22.0246 176.906 22.5789 176.646 23.0444C176.386 23.5099 176.03 23.8696 175.58 24.1235C175.129 24.3774 174.614 24.5044 174.034 24.5044L173.863 24.5044L173.863 26.3262C173.863 26.5589 173.802 26.743 173.682 26.8784C173.561 27.0138 173.395 27.0815 173.183 27.0815ZM173.266 21.3305C173.389 21.3305 173.496 21.2829 173.59 21.1877C173.683 21.0925 173.729 20.9814 173.729 20.8545C173.729 20.7233 173.684 20.6101 173.593 20.5149C173.502 20.4197 173.393 20.372 173.266 20.372L168.93 20.372C168.799 20.372 168.688 20.4186 168.597 20.5117C168.506 20.6048 168.461 20.7191 168.461 20.8545C168.461 20.9814 168.506 21.0925 168.597 21.1877C168.688 21.2829 168.799 21.3305 168.93 21.3305L173.266 21.3305ZM173.266 19.2929C173.389 19.2929 173.496 19.2453 173.59 19.1501C173.683 19.0549 173.729 18.9417 173.729 18.8105C173.729 18.6836 173.684 18.5725 173.593 18.4773C173.502 18.3821 173.393 18.3345 173.266 18.3345L166.652 18.3345C166.52 18.3345 166.407 18.3821 166.312 18.4773C166.217 18.5725 166.169 18.6836 166.169 18.8105C166.169 18.9417 166.217 19.0549 166.312 19.1501C166.407 19.2453 166.52 19.2929 166.652 19.2929L173.266 19.2929ZM173.266 17.2617C173.389 17.2617 173.496 17.213 173.59 17.1157C173.683 17.0184 173.729 16.9062 173.729 16.7793C173.729 16.6481 173.684 16.537 173.593 16.446C173.502 16.355 173.393 16.3095 173.266 16.3095L166.652 16.3095C166.52 16.3095 166.407 16.355 166.312 16.446C166.217 16.537 166.169 16.6481 166.169 16.7793C166.169 16.9062 166.217 17.0184 166.312 17.1157C166.407 17.213 166.52 17.2617 166.652 17.2617L173.266 17.2617Z" fill="#ffffff" opacity="1" stroke="none" vectornator:layerName="Text 4"/>
</g>
</svg>
